<?xml version="1.0" encoding="UTF-8" standalone="no"?>
<!-- Created with Inkscape (http://www.inkscape.org/) -->

<svg
   width="48"
   height="48"
   viewBox="0 0 48 48"
   version="1.1"
   id="svg1"
   xml:space="preserve"
   inkscape:version="1.4.3 (0d15f75042, 2025-12-25)"
   sodipodi:docname="logo.svg"
   inkscape:export-filename="logo512.png"
   inkscape:export-xdpi="1024"
   inkscape:export-ydpi="1024"
   xmlns:inkscape="http://www.inkscape.org/namespaces/inkscape"
   xmlns:sodipodi="http://sodipodi.sourceforge.net/DTD/sodipodi-0.dtd"
   xmlns="http://www.w3.org/2000/svg"
   xmlns:svg="http://www.w3.org/2000/svg"><sodipodi:namedview
     id="namedview1"
     pagecolor="#ffffff"
     bordercolor="#000000"
     borderopacity="0.25"
     inkscape:showpageshadow="2"
     inkscape:pageopacity="0.0"
     inkscape:pagecheckerboard="0"
     inkscape:deskcolor="#d1d1d1"
     inkscape:document-units="px"
     inkscape:zoom="12.153398"
     inkscape:cx="12.835916"
     inkscape:cy="23.738217"
     inkscape:window-width="1920"
     inkscape:window-height="1012"
     inkscape:window-x="0"
     inkscape:window-y="0"
     inkscape:window-maximized="1"
     inkscape:current-layer="layer1" /><defs
     id="defs1"><inkscape:path-effect
       effect="fillet_chamfer"
       id="path-effect20"
       is_visible="true"
       lpeversion="1"
       nodesatellites_param="F,0,0,1,0,0,0,1 @ F,0,0,1,0,12,0,1 @ F,0,0,1,0,0,0,1 @ F,0,0,1,0,12,0,1"
       radius="0"
       unit="px"
       method="auto"
       mode="F"
       chamfer_steps="1"
       flexible="false"
       use_knot_distance="true"
       apply_no_radius="true"
       apply_with_radius="true"
       only_selected="false"
       hide_knots="false" /><inkscape:path-effect
       effect="simplify"
       id="path-effect18"
       is_visible="true"
       lpeversion="1.3"
       threshold="36.000000"
       steps="1"
       smooth_angles="360"
       helper_size="0"
       simplify_individual_paths="false"
       simplify_just_coalesce="false" /><inkscape:path-effect
       effect="simplify"
       id="path-effect17"
       is_visible="true"
       lpeversion="1.3"
       threshold="36.000000"
       steps="1"
       smooth_angles="360"
       helper_size="0"
       simplify_individual_paths="false"
       simplify_just_coalesce="false" /><inkscape:path-effect
       effect="simplify"
       id="path-effect16"
       is_visible="true"
       lpeversion="1.3"
       threshold="36.000000"
       steps="1"
       smooth_angles="360"
       helper_size="0"
       simplify_individual_paths="false"
       simplify_just_coalesce="false" /><inkscape:path-effect
       effect="simplify"
       id="path-effect15"
       is_visible="true"
       lpeversion="1.3"
       threshold="36.000000"
       steps="1"
       smooth_angles="360"
       helper_size="0"
       simplify_individual_paths="false"
       simplify_just_coalesce="false" /><inkscape:path-effect
       effect="simplify"
       id="path-effect14"
       is_visible="true"
       lpeversion="1.3"
       threshold="36.000000"
       steps="1"
       smooth_angles="360"
       helper_size="0"
       simplify_individual_paths="false"
       simplify_just_coalesce="false" /><inkscape:path-effect
       effect="simplify"
       id="path-effect13"
       is_visible="true"
       lpeversion="1.3"
       threshold="36.000000"
       steps="1"
       smooth_angles="360"
       helper_size="0"
       simplify_individual_paths="false"
       simplify_just_coalesce="false" /><inkscape:path-effect
       effect="simplify"
       id="path-effect12"
       is_visible="true"
       lpeversion="1.3"
       threshold="36.000000"
       steps="1"
       smooth_angles="360"
       helper_size="0"
       simplify_individual_paths="false"
       simplify_just_coalesce="false" /><style
       id="style1">.cls-1{fill:#fff;}.cls-2{fill:#ef8333;}.cls-3{fill:#01aeee;}.cls-4{fill:#fdfefe;}</style><filter
       id="light-bulb_svg__a"
       width="26.5"
       height="30"
       x="-2.25"
       y="-3"
       color-interpolation-filters="sRGB"
       filterUnits="userSpaceOnUse"><feFlood
         flood-opacity="0"
         result="BackgroundImageFix"
         id="feFlood6" /><feBlend
         in="SourceGraphic"
         in2="BackgroundImageFix"
         result="shape"
         id="feBlend6"
         mode="normal" /><feGaussianBlur
         result="effect1_foregroundBlur_5185_14215"
         stdDeviation="3"
         id="feGaussianBlur6" /></filter><mask
       id="light-bulb_svg__c"
       fill="#ffffff"><path
         fill-rule="evenodd"
         d="m 14.86,17 c 0.175,-0.783 0.664,-1.472 1.253,-2.037 C 17.433,13.695 18.25,11.94 18.25,10 18.25,6.134 15.004,3 11,3 6.996,3 3.75,6.134 3.75,10 c 0,1.94 0.817,3.695 2.137,4.963 0.589,0.565 1.078,1.254 1.253,2.037 z m -7.568,1.5 h 7.416 l -0.055,0.666 A 2,2 0 0 1 12.66,21 H 9.34 A 2,2 0 0 1 7.347,19.166 Z"
         clip-rule="evenodd"
         id="path3" /></mask><mask
       id="mask1"
       fill="#ffffff"><path
         fill-rule="evenodd"
         d="m 14.86,17 c 0.175,-0.783 0.664,-1.472 1.253,-2.037 C 17.433,13.695 18.25,11.94 18.25,10 18.25,6.134 15.004,3 11,3 6.996,3 3.75,6.134 3.75,10 c 0,1.94 0.817,3.695 2.137,4.963 0.589,0.565 1.078,1.254 1.253,2.037 z m -7.568,1.5 h 7.416 l -0.055,0.666 A 2,2 0 0 1 12.66,21 H 9.34 A 2,2 0 0 1 7.347,19.166 Z"
         clip-rule="evenodd"
         id="path1-2" /></mask><mask
       maskUnits="userSpaceOnUse"
       id="mask7"><g
         id="g8"
         transform="translate(-49.945669,-1.6708739)"><path
           fill="#018374"
           fill-rule="evenodd"
           d="m 64.805669,18.670874 c 0.175,-0.783 0.664,-1.472 1.253,-2.037 1.32,-1.268 2.137,-3.023 2.137,-4.963 0,-3.8660001 -3.246,-7.0000001 -7.25,-7.0000001 -4.004,0 -7.25,3.134 -7.25,7.0000001 0,1.94 0.817,3.695 2.137,4.963 0.589,0.565 1.078,1.254 1.253,2.037 z m -7.568,1.5 h 7.416 l -0.055,0.666 a 2,2 0 0 1 -1.993,1.834 h -3.32 a 2,2 0 0 1 -1.993,-1.834 z"
           clip-rule="evenodd"
           id="path7" /></g></mask><mask
       maskUnits="userSpaceOnUse"
       id="mask8"><g
         id="g9"
         transform="translate(-49.945669,-1.6708739)"><path
           fill="#018374"
           fill-rule="evenodd"
           d="m 64.805669,18.670874 c 0.175,-0.783 0.664,-1.472 1.253,-2.037 1.32,-1.268 2.137,-3.023 2.137,-4.963 0,-3.8660001 -3.246,-7.0000001 -7.25,-7.0000001 -4.004,0 -7.25,3.134 -7.25,7.0000001 0,1.94 0.817,3.695 2.137,4.963 0.589,0.565 1.078,1.254 1.253,2.037 z m -7.568,1.5 h 7.416 l -0.055,0.666 a 2,2 0 0 1 -1.993,1.834 h -3.32 a 2,2 0 0 1 -1.993,-1.834 z"
           clip-rule="evenodd"
           id="path8" /></g></mask><clipPath
       clipPathUnits="userSpaceOnUse"
       id="clipPath20"><path
         style="fill:#ffdd88;fill-opacity:1;stroke:none;stroke-width:0.6;stroke-linecap:round;stroke-dasharray:none;stroke-opacity:1"
         id="path20"
         width="48"
         height="48"
         x="0"
         y="0"
         inkscape:path-effect="#path-effect20"
         sodipodi:type="rect"
         d="M 0,0 H 36 A 12,12 45 0 1 48,12 V 48 H 12 A 12,12 45 0 1 0,36 Z" /></clipPath></defs><g
     inkscape:label="Layer 1"
     inkscape:groupmode="layer"
     id="layer1"><g
       id="g20"
       clip-path="url(#clipPath20)"><rect
         style="fill:#4a82c3;fill-opacity:1;stroke-width:5;stroke-linecap:round"
         id="rect4"
         width="24"
         height="24"
         x="0"
         y="0"
         ry="0" /><rect
         style="fill:#feba12;fill-opacity:1;stroke-width:5;stroke-linecap:round"
         id="rect5"
         width="24"
         height="24"
         x="24"
         y="0"
         ry="0" /><rect
         style="fill:#01aeee;fill-opacity:1;stroke-width:5;stroke-linecap:round"
         id="rect6"
         width="24"
         height="24"
         x="0"
         y="24"
         ry="0" /><rect
         style="fill:#b12a1c;fill-opacity:1;stroke-width:5;stroke-linecap:round"
         id="rect7"
         width="24"
         height="24"
         x="24"
         y="24"
         ry="0" /><g
         id="g4"
         transform="matrix(0.09414484,0,0,0.09414484,-224.86169,-49.487574)"><path
           class="cls-2"
           d="m 2489.9452,1115.4413 c -0.114,7.6192 -0.1087,18.1841 -2.416,28.551 -1.2129,5.4459 -2.9358,6.5648 -8.456,5.7578 -2.9258,-0.4307 -5.9655,-0.5843 -8.6638,-1.9803 -5.0002,-2.6042 -9.0202,-5.2528 -9.5152,-12.2135 -1.8467,-25.8827 -6.8421,-51.3841 -10.3967,-77.0589 -3.0547,-22.0012 -6.4806,-43.9728 -6.2925,-66.28592 0.084,-10.03031 3.213,-19.55052 4.8567,-29.31351 3.0497,-18.13953 5.8567,-36.28422 4.9063,-54.77036 -0.4951,-10.00059 -3.1289,-19.11987 -9.4758,-27.27377 -5.0745,-6.51026 -7.8916,-14.35727 -8.951,-22.60022 -0.8861,-6.88163 3.0694,-10.63432 9.9758,-9.73823 6.1191,0.79706 11.1491,3.96055 15.9564,7.54493 2.5893,1.93094 9.149,-0.39595 9.2579,-3.55962 0.3713,-10.79266 4.025,-20.92684 5.8717,-31.41742 0.495,-2.68347 0.6335,-5.44585 1.302,-8.07482 1.1782,-4.65377 4.6141,-6.15866 8.8222,-3.83195 3.7181,2.05953 6.5252,5.28251 9.258,8.446 1.8218,2.11404 1.5792,4.95087 0.9011,7.49559 a 20.62986,20.62986 0 0 1 -2.0645,5.16853 c -2.5695,4.37164 -4.327,8.51529 -2.0744,13.86211 1.7823,4.23306 0,8.57977 -2.5151,12.3077 a 9.06486,9.06486 0 0 0 -1.3961,7.42613 c 0.9902,4.45571 3.3171,5.67365 7.2083,3.35656 2.9012,-1.72771 5.5104,-3.84175 6.2331,-7.47564 0.3564,-1.81195 1.7773,-2.62879 3.3221,-3.20303 1.7426,-0.6437 3.5149,-1.21296 5.2973,-1.72789 4.1883,-1.21794 7.1933,-3.10417 7.5994,-8.21339 0.4405,-5.4706 3.5001,-9.4609 9.1043,-11.00551 2.8023,-0.77729 4.5697,-2.81207 6.2727,-5.01018 1.8169,-2.35164 3.6141,-4.76759 5.7281,-6.84191 3.4654,-3.39129 6.4706,-2.59922 8.1192,2.03977 1.7872,5.01998 1.3467,10.03016 -0.5595,14.92652 -4.2874,11.00053 -12.2729,19.15443 -20.9368,26.68457 -6.931,6.03006 -14.1888,11.69873 -22.9864,14.89197 a 2.3070588,2.3070588 0 0 0 -1.5693,1.84669 c -5.124,20.06049 -12.1245,39.60605 -16.8327,59.77555 -1.4307,6.15884 -2.1584,12.47602 -1.1188,18.85252 a 16.065249,16.065249 0 0 0 2.1832,6.26767 c 2.6982,4.19335 6.1638,4.66856 9.8273,1.33675 10.8917,-9.90156 22.3131,-19.00107 35.9377,-24.90734 10.258,-4.45571 20.7586,-6.70334 31.8086,-2.97042 a 37.625852,37.625852 0 0 1 9.2183,4.7724 c 1.2575,0.86154 1.9805,1.54479 3.6191,-0.0303 3.6389,-3.52008 11.1888,-3.46557 15.585,-0.39613 4.3963,3.06945 5.5994,7.29753 3.619,13.19383 -1.4851,4.39622 -4.0249,8.23316 -6.436,12.1344 -1.4308,2.30694 -1.9803,4.45571 -1.099,7.3221 1.8515,5.90135 0.2674,11.81755 -1.0991,17.61485 -1.4258,6.04982 -4.1734,11.61942 -6.436,17.37722 -6.8816,17.3574 -9.1886,35.3091 -3.7032,53.5376 1.5496,5.1538 1.3268,9.6343 -1.1437,14.2533 -2.6882,5.0349 -5.1932,10.1641 -7.832,15.2188 a 79.999494,79.999494 0 0 0 -8.8421,30.1304 c -0.2474,2.7328 -0.045,5.3963 1.4853,7.9213 1.6684,2.7823 -0.089,4.7328 -2.1834,6.2874 -3.5546,2.6288 -7.733,3.8715 -11.9213,5.0448 -1.6636,0.4951 -3.3568,0.8318 -4.9954,1.3714 -3.5942,1.1733 -4.9954,0.401 -5.5202,-3.4903 -0.807,-6.0251 0.7178,-11.8423 1.8863,-17.6693 0.4604,-2.3071 0.8863,-4.6835 1.8071,-6.8221 3.6487,-8.4858 1.6634,-17.1249 0.7228,-25.6649 -1.1189,-10.2283 -2.5844,-20.4319 -5.7282,-30.2987 -0.2276,-0.708 -0.4504,-1.416 -0.7128,-2.1091 -4.5943,-12.1887 -8.3322,-14.3572 -21.6398,-9.1292 -8.7381,3.4358 -13.8621,10.5948 -17.1989,19.0951 -5.144,13.0007 -5.5401,26.6203 -4.9806,43.2699 z"
           id="path5"
           style="stroke-width:0.495076" /></g><g
         id="Outline"
         transform="matrix(0.39166373,0,0,0.39166373,23.087344,23.272372)"
         style="fill:#ffffff"><path
           d="M 44.37,7.7 A 10.49,10.49 0 0 0 33.42,7.38 C 30.19,9.24 27.56,14 27,19 a 15.11,15.11 0 0 0 4.11,12.44 c -1.43,1.85 -1.84,3.31 -1.24,4.44 0.6,1.13 2.75,2 4.73,2.34 0.47,2.19 0.33,3.89 -0.42,4.79 -0.75,0.9 -2,0.65 -4.18,0.35 -2.57,-0.36 -5.77,-0.81 -8.93,1 A 8.34,8.34 0 0 0 17,52.05 c 0,3.06 1.34,5.93 3.08,6.84 A 1.11,1.11 0 0 0 20.54,59 1,1 0 0 0 21.43,58.46 1,1 0 0 0 21,57.11 c -0.93,-0.48 -2,-2.57 -2,-5.08 a 6.46,6.46 0 0 1 3.07,-6 c 2.58,-1.43 5.29,-1.05 7.68,-0.72 2.39,0.33 4.6,0.64 6,-1.05 1.08,-1.31 1.4,-3.35 1,-5.92 H 37 c 2.12,-0.1 2.88,-0.89 3.15,-1.53 A 5.89,5.89 0 0 0 40,33.42 c 0.13,-0.06 0.26,-0.1 0.38,-0.17 A 15.51,15.51 0 0 0 48.7,21.12 C 49.91,12.82 46.51,9.14 44.37,7.7 Z M 38.27,36 c -0.17,0.2 -1.24,0.48 -3,0.27 -2.11,-0.26 -3.4,-1 -3.61,-1.36 -0.1,-0.19 0,-0.88 1,-2.16 a 7.46,7.46 0 0 0 4.26,1.34 8.52,8.52 0 0 0 1.21,-0.09 4.1,4.1 0 0 1 0.14,2 z m 8.45,-15.19 a 13.6,13.6 0 0 1 -7.23,10.64 5.51,5.51 0 0 1 -6.31,-0.81 v 0 A 13.18,13.18 0 0 1 29,19.21 c 0.53,-4.89 3.12,-8.78 5.41,-10.1 A 8.51,8.51 0 0 1 38.66,8 8.25,8.25 0 0 1 43.25,9.34 c 3.02,2.06 4.25,6.14 3.47,11.5 z"
           id="path1"
           style="fill:#ffffff" /></g><path
         d="m 39.735207,11.747909 c 0.511283,-0.731418 0.80953,-1.622613 0.80953,-2.58837 0,-2.5102577 -2.034479,-4.544738 -4.544737,-4.544738 -2.510258,0 -4.544737,2.0344803 -4.544737,4.544738 0,0.965757 0.298247,1.856952 0.80953,2.58837 0.131372,0.18818 0.287597,0.401215 0.454474,0.628452 v 0 c 0.458025,0.628452 1.004814,1.381174 1.41313,2.123245 0.369259,0.674609 0.55744,1.377623 0.649755,2.041581 h -1.72913 c -0.07811,-0.426069 -0.209484,-0.841486 -0.418969,-1.224949 -0.351507,-0.639104 -0.788227,-1.239151 -1.224948,-1.839199 v 0 0 c -0.18463,-0.25209 -0.369261,-0.504181 -0.546789,-0.759823 -0.699464,-1.004812 -1.111331,-2.233313 -1.111331,-3.557677 0,-3.45116 2.797855,-6.2490147 6.249015,-6.2490147 3.45116,0 6.249015,2.7978546 6.249015,6.2490147 0,1.324364 -0.411867,2.552865 -1.114881,3.561228 -0.177529,0.255641 -0.362159,0.507732 -0.546789,0.759824 v 0 0 c -0.436721,0.596496 -0.873442,1.196543 -1.224949,1.839198 -0.209484,0.383462 -0.340856,0.798879 -0.418968,1.224948 h -1.722029 c 0.09231,-0.663957 0.280495,-1.370522 0.649755,-2.041581 0.408316,-0.742071 0.955104,-1.494792 1.413129,-2.123245 v 0 0 0 c 0.166877,-0.227236 0.319552,-0.44027 0.450924,-0.628451 z M 36,7.4552627 c -0.940903,0 -1.704277,0.7633736 -1.704277,1.7042763 0,0.3124507 -0.255642,0.5680915 -0.568092,0.5680915 -0.312451,0 -0.568092,-0.2556408 -0.568092,-0.5680915 0,-1.5693548 1.271106,-2.8404609 2.840461,-2.8404609 0.312451,0 0.568092,0.255641 0.568092,0.5680917 0,0.3124507 -0.255641,0.5680929 -0.568092,0.5680929 z m 0,13.6342133 c -1.569355,0 -2.840461,-1.271107 -2.840461,-2.840461 v -0.568092 h 5.680922 v 0.568092 c 0,1.569354 -1.271106,2.840461 -2.840461,2.840461 z"
         id="path1-6"
         style="fill:#ffffff;stroke-width:0.0355057" /><g
         id="g19"
         transform="translate(-1.040584,-2.5166501)"><path
           style="fill:none;fill-opacity:1;stroke:#ffffff;stroke-width:0.866603;stroke-linecap:round;stroke-dasharray:none;stroke-opacity:1"
           d="m 5.7201998,12.209667 c -1.1613934,0.861286 -0.1339331,2.924116 1.385461,2.476591 0.6277931,-0.184911 1.8384968,-1.430034 1.7516619,-1.246876 -0.4529692,0.955431 0.196007,2.1307 0.9951512,2.765164 0.8600361,0.682807 2.3326721,0.942971 3.0684531,-0.15685 0.373108,-0.557709 -0.569711,-2.341622 0.601136,-1.055259 1.24835,1.371511 3.370629,1.101919 5.09245,0.674784 1.203731,-0.298612 0.567142,-2.468131 0.700984,-2.517132 1.136226,-0.415981 1.81577,-2.141857 1.394144,-3.139232 C 20.322972,9.0961718 21.807479,8.861085 21.063646,7.4450125 20.249998,5.8960307 18.67201,8.1505489 17.877384,7.4376207 16.897392,6.5583839 15.459013,5.9058063 14.165674,6.3968079 13.404336,6.6858414 14.262681,8.5175156 13.23003,7.4363754 12.252718,6.413172 9.4138852,6.4808049 9.5381877,7.9371641 9.6450097,9.1887176 8.9708723,7.1096912 8.002701,7.4929689 6.978969,7.8982419 5.9076286,9.4341654 6.8967394,10.355726 c 1.0051408,0.936496 -1.0484748,-0.285932 -1.7152616,0.702697 -0.4843457,0.718129 0.3022714,1.737793 1.03786,1.864298"
           id="path14"
           sodipodi:nodetypes="csssssscssscsssccsssssscssssssssssscsssc" /><circle
           style="fill:none;fill-opacity:1;stroke:#ffffff;stroke-width:0.6;stroke-linecap:round;stroke-dasharray:none;stroke-opacity:1"
           id="path18"
           cx="9.7195044"
           cy="18.639202"
           r="1.1108005" /><circle
           style="fill:none;fill-opacity:1;stroke:#ffffff;stroke-width:0.440342;stroke-linecap:round;stroke-dasharray:none;stroke-opacity:1"
           id="circle18"
           cx="7.273313"
           cy="21.085394"
           r="0.81522012" /><circle
           style="fill:none;fill-opacity:1;stroke:#ffffff;stroke-width:0.31349;stroke-linecap:round;stroke-dasharray:none;stroke-opacity:1"
           id="circle19"
           cx="5.1099644"
           cy="22.504749"
           r="0.58037543" /></g></g></g></svg>
